<svg data-v-423bf9ae="" xmlns="http://www.w3.org/2000/svg" viewBox="0 0 541.3187025417891 60" class="font"><!----><!----><!----><g data-v-423bf9ae="" id="5c66f45c-5b3a-4ee7-b6cb-5d905764f5c0" fill="white" transform="matrix(4.709576222757963,0,0,4.709576222757963,-2.119310051530533,-16.86028347183567)"><path d="M6.86 6.30L6.86 6.30Q6.58 5.60 5.92 5.11L5.92 5.11L5.92 5.11Q5.26 4.62 4.46 4.62L4.46 4.62L4.46 4.62Q3.65 4.62 3.14 5.10L3.14 5.10L3.14 5.10Q2.62 5.59 2.62 6.45L2.62 6.45L2.62 6.45Q2.62 6.85 2.68 7.10L2.68 7.10L2.68 7.10Q2.74 7.35 3.02 7.65L3.02 7.65L3.02 7.65Q3.29 7.95 3.55 8.16L3.55 8.16L3.55 8.16Q3.81 8.37 4.51 8.93L4.51 8.93L4.51 8.93Q5.21 9.49 5.94 10.12L5.94 10.12L5.94 10.12Q6.68 10.74 7.07 11.40L7.07 11.40L7.07 11.40Q7.46 12.05 7.46 13.08L7.46 13.08L7.46 13.08Q7.46 14.42 6.39 15.34L6.39 15.34L6.39 15.34Q5.32 16.27 3.67 16.27L3.67 16.27L3.67 16.27Q2.38 16.27 1.41 15.76L1.41 15.76L1.41 15.76Q0.45 15.25 0.45 14.31L0.45 14.31L0.45 14.31Q0.45 13.90 0.63 13.58L0.63 13.58L0.63 13.58Q0.81 13.26 1.16 12.85L1.16 12.85L1.16 12.85Q1.78 15.34 4.03 15.34L4.03 15.34L4.03 15.34Q4.84 15.34 5.46 14.88L5.46 14.88L5.46 14.88Q6.08 14.42 6.08 13.51L6.08 13.51L6.08 13.51Q6.08 12.99 5.95 12.72L5.95 12.72L5.95 12.72Q5.82 12.45 5.75 12.29L5.75 12.29L5.75 12.29Q5.67 12.14 5.47 11.92L5.47 11.92L5.47 11.92Q5.28 11.70 5.15 11.57L5.15 11.57L5.15 11.57Q5.03 11.44 4.72 11.18L4.72 11.18L4.72 11.18Q4.41 10.92 4.24 10.77L4.24 10.77L4.24 10.77Q4.06 10.63 3.64 10.30L3.64 10.30L3.64 10.30Q3.22 9.97 2.98 9.77L2.98 9.77L2.98 9.77Q2.17 9.11 1.74 8.46L1.74 8.46L1.74 8.46Q1.32 7.80 1.32 6.87L1.32 6.87L1.32 6.87Q1.32 5.32 2.37 4.45L2.37 4.45L2.37 4.45Q3.42 3.58 5.11 3.58L5.11 3.58L5.11 3.58Q6.12 3.58 6.80 3.98L6.80 3.98L6.80 3.98Q7.49 4.37 7.49 5.05L7.49 5.05L7.49 5.05Q7.49 5.74 6.86 6.30L6.86 6.30ZM11.41 14.91L11.41 14.91L11.41 14.91Q12.07 14.91 13.31 13.64L13.31 13.64L13.31 13.64Q14.56 12.38 15.40 10.89L15.40 10.89L15.40 10.89Q15.43 10.71 15.56 9.85L15.56 9.85L15.56 9.85Q15.69 8.99 15.74 8.66L15.74 8.66L15.74 8.66Q15.78 8.33 15.86 7.69L15.86 7.69L15.86 7.69Q16.00 6.64 16.00 5.57L16.00 5.57L16.00 5.57Q16.00 4.49 15.71 3.91L15.71 3.91L15.71 3.91Q15.85 3.78 16.14 3.68L16.14 3.68L16.14 3.68Q16.42 3.58 16.63 3.58L16.63 3.58L16.63 3.58Q17.12 3.58 17.36 3.93L17.36 3.93L17.36 3.93Q17.60 4.27 17.60 5.04L17.60 5.04L17.60 5.04Q17.60 5.81 17.06 9.05L17.06 9.05L17.06 9.05Q16.52 12.29 16.52 13.66L16.52 13.66L16.52 13.66Q16.52 15.02 17.05 15.62L17.05 15.62L17.05 15.62Q16.62 16.13 16.09 16.13L16.09 16.13L16.09 16.13Q14.99 16.13 14.99 14.28L14.99 14.28L14.99 14.28Q14.99 13.66 15.15 12.63L15.15 12.63L15.15 12.63Q14.20 14.11 13.00 15.18L13.00 15.18L13.00 15.18Q11.80 16.25 11.00 16.25L11.00 16.25L11.00 16.25Q9.25 16.25 9.25 13.89L9.25 13.89L9.25 13.89Q9.25 13.13 9.72 10.09L9.72 10.09L9.72 10.09Q10.19 7.06 10.19 5.78L10.19 5.78L10.19 5.78Q10.19 4.49 9.90 3.91L9.90 3.91L9.90 3.91Q10.28 3.58 10.80 3.58L10.80 3.58L10.80 3.58Q11.33 3.58 11.56 3.93L11.56 3.93L11.56 3.93Q11.80 4.27 11.80 5.04L11.80 5.04L11.80 5.04Q11.80 5.81 11.26 9.11L11.26 9.11L11.26 9.11Q10.71 12.40 10.71 13.82L10.71 13.82L10.71 13.82Q10.71 14.91 11.41 14.91ZM25.13 6.30L25.13 6.30Q24.85 5.60 24.19 5.11L24.19 5.11L24.19 5.11Q23.53 4.62 22.73 4.62L22.73 4.62L22.73 4.62Q21.92 4.62 21.41 5.10L21.41 5.10L21.41 5.10Q20.89 5.59 20.89 6.45L20.89 6.45L20.89 6.45Q20.89 6.85 20.95 7.10L20.95 7.10L20.95 7.10Q21.01 7.35 21.29 7.65L21.29 7.65L21.29 7.65Q21.56 7.95 21.82 8.16L21.82 8.16L21.82 8.16Q22.08 8.37 22.78 8.93L22.78 8.93L22.78 8.93Q23.48 9.49 24.21 10.12L24.21 10.12L24.21 10.12Q24.95 10.74 25.34 11.40L25.34 11.40L25.34 11.40Q25.73 12.05 25.73 13.08L25.73 13.08L25.73 13.08Q25.73 14.42 24.66 15.34L24.66 15.34L24.66 15.34Q23.59 16.27 21.94 16.27L21.94 16.27L21.94 16.27Q20.65 16.27 19.68 15.76L19.68 15.76L19.68 15.76Q18.72 15.25 18.72 14.31L18.72 14.31L18.72 14.31Q18.72 13.90 18.90 13.58L18.90 13.58L18.90 13.58Q19.08 13.26 19.43 12.85L19.43 12.85L19.43 12.85Q20.05 15.34 22.30 15.34L22.30 15.34L22.30 15.34Q23.11 15.34 23.73 14.88L23.73 14.88L23.73 14.88Q24.35 14.42 24.35 13.51L24.35 13.51L24.35 13.51Q24.35 12.99 24.22 12.72L24.22 12.72L24.22 12.72Q24.09 12.45 24.02 12.29L24.02 12.29L24.02 12.29Q23.94 12.14 23.74 11.92L23.74 11.92L23.74 11.92Q23.55 11.70 23.42 11.57L23.42 11.57L23.42 11.57Q23.30 11.44 22.99 11.18L22.99 11.18L22.99 11.18Q22.68 10.92 22.50 10.77L22.50 10.77L22.50 10.77Q22.33 10.63 21.91 10.30L21.91 10.30L21.91 10.30Q21.49 9.97 21.25 9.77L21.25 9.77L21.25 9.77Q20.44 9.11 20.01 8.46L20.01 8.46L20.01 8.46Q19.59 7.80 19.59 6.87L19.59 6.87L19.59 6.87Q19.59 5.32 20.64 4.45L20.64 4.45L20.64 4.45Q21.69 3.58 23.38 3.58L23.38 3.58L23.38 3.58Q24.39 3.58 25.07 3.98L25.07 3.98L25.07 3.98Q25.76 4.37 25.76 5.05L25.76 5.05L25.76 5.05Q25.76 5.74 25.13 6.30L25.13 6.30ZM33.71 5.17L33.71 5.17L31.54 5.00L31.54 5.00Q31.51 5.89 30.98 9.14L30.98 9.14L30.98 9.14Q30.44 12.38 30.44 13.70L30.44 13.70L30.44 13.70Q30.44 15.02 30.98 15.62L30.98 15.62L30.98 15.62Q30.55 16.13 30.00 16.13L30.00 16.13L30.00 16.13Q28.92 16.13 28.92 14.28L28.92 14.28L28.92 14.28Q28.92 13.51 29.44 10.21L29.44 10.21L29.44 10.21Q29.95 6.92 29.95 5.66L29.95 5.66L29.95 5.66Q29.95 5.22 29.93 4.98L29.93 4.98L29.93 4.98Q27.99 5.00 26.75 5.43L26.75 5.43L26.75 5.43Q26.81 4.52 27.14 4.19L27.14 4.19L27.14 4.19Q27.47 3.86 28.13 3.86L28.13 3.86L33.33 3.92L33.33 3.92Q34.64 3.92 35.07 3.65L35.07 3.65L35.07 3.65Q35.01 4.56 34.70 4.87L34.70 4.87L34.70 4.87Q34.38 5.17 33.71 5.17ZM38.16 3.89L38.16 3.89L40.43 3.92L40.43 3.92Q42.11 3.92 42.67 3.65L42.67 3.65L42.67 3.65Q42.60 4.56 42.23 4.87L42.23 4.87L42.23 4.87Q41.86 5.17 41.06 5.17L41.06 5.17L41.06 5.17Q39.75 5.17 37.77 4.86L37.77 4.86L37.77 4.86Q37.77 5.80 37.18 9.32L37.18 9.32L37.18 9.32Q39.93 9.30 40.77 8.86L40.77 8.86L40.77 8.86Q40.68 9.97 40.14 10.23L40.14 10.23L40.14 10.23Q39.84 10.39 39.58 10.42L39.58 10.42L39.58 10.42Q39.31 10.46 38.93 10.46L38.93 10.46L38.93 10.46Q38.56 10.46 37.02 10.33L37.02 10.33L37.02 10.33Q36.58 13.12 36.58 14.46L36.58 14.46L36.58 14.46Q36.58 14.74 36.60 14.87L36.60 14.87L36.60 14.87Q37.74 14.92 38.53 14.92L38.53 14.92L38.53 14.92Q41.17 14.92 41.86 14.56L41.86 14.56L41.86 14.56Q41.82 15.12 41.67 15.46L41.67 15.46L41.67 15.46Q41.52 15.79 41.19 15.95L41.19 15.95L41.19 15.95Q40.85 16.10 40.54 16.14L40.54 16.14L40.54 16.14Q40.22 16.17 39.53 16.17L39.53 16.17L39.53 16.17Q38.84 16.17 36.78 15.88L36.78 15.88L36.78 15.88Q36.40 16.14 36.02 16.14L36.02 16.14L36.02 16.14Q35.01 16.14 35.01 14.78L35.01 14.78L35.01 14.78Q35.01 13.90 35.64 10.26L35.64 10.26L35.64 10.26Q35.42 10.25 34.93 10.25L34.93 10.25L34.93 10.25Q35 9.73 35.15 9.55L35.15 9.55L35.15 9.55Q35.31 9.38 35.80 9.34L35.80 9.34L35.80 9.34Q36.19 6.86 36.19 5.89L36.19 5.89L36.19 5.89Q36.19 4.91 35.98 4.28L35.98 4.28L35.98 4.28Q36.47 3.89 38.16 3.89ZM46.66 4.07L46.66 4.07L46.66 4.07Q47.54 3.61 48.54 3.61L48.54 3.61L48.54 3.61Q49.53 3.61 50.14 3.96L50.14 3.96L50.14 3.96Q50.75 4.30 50.75 4.93L50.75 4.93L50.75 4.93Q50.75 5.28 50.62 5.58L50.62 5.58L50.62 5.58Q50.48 5.88 50.37 6.01L50.37 6.01L50.37 6.01Q50.26 6.13 50.04 6.33L50.04 6.33L50.04 6.33Q49.69 5.53 49.17 5.11L49.17 5.11L49.17 5.11Q48.66 4.69 47.89 4.69L47.89 4.69L47.89 4.69Q47.12 4.69 46.54 5.15L46.54 5.15L46.54 5.15Q45.96 5.61 45.63 6.30L45.63 6.30L45.63 6.30Q45.30 6.99 45.08 7.84L45.08 7.84L45.08 7.84Q44.70 9.28 44.70 10.68L44.70 10.68L44.70 10.68Q44.70 12.94 45.43 14.14L45.43 14.14L45.43 14.14Q46.16 15.34 47.60 15.34L47.60 15.34L47.60 15.34Q48.38 15.34 48.99 14.85L48.99 14.85L48.99 14.85Q49.60 14.36 49.92 13.43L49.92 13.43L49.92 13.43Q50.27 13.82 50.27 14.39L50.27 14.39L50.27 14.39Q50.27 15.12 49.33 15.72L49.33 15.72L49.33 15.72Q48.38 16.32 47.21 16.32L47.21 16.32L47.21 16.32Q45.18 16.32 44.18 14.94L44.18 14.94L44.18 14.94Q43.19 13.55 43.19 11.33L43.19 11.33L43.19 11.33Q43.19 9.06 44.06 7.10L44.06 7.10L44.06 7.10Q45.01 4.94 46.66 4.07ZM53.59 3.58L53.59 3.58L53.59 3.58Q54.11 3.58 54.35 3.93L54.35 3.93L54.35 3.93Q54.59 4.27 54.59 5.18L54.59 5.18L54.59 5.18Q54.59 6.09 53.97 9.48L53.97 9.48L58.55 9.48L58.55 9.48Q58.93 6.86 58.93 5.68L58.93 5.68L58.93 5.68Q58.93 4.49 58.63 3.91L58.63 3.91L58.63 3.91Q58.77 3.78 59.06 3.68L59.06 3.68L59.06 3.68Q59.35 3.58 59.57 3.58L59.57 3.58L59.57 3.58Q60.06 3.58 60.29 3.92L60.29 3.92L60.29 3.92Q60.52 4.26 60.52 5.03L60.52 5.03L60.52 5.03Q60.52 5.81 59.98 9.05L59.98 9.05L59.98 9.05Q59.44 12.29 59.44 13.66L59.44 13.66L59.44 13.66Q59.44 15.02 59.98 15.62L59.98 15.62L59.98 15.62Q59.56 16.13 59.01 16.13L59.01 16.13L59.01 16.13Q57.92 16.13 57.92 14.28L57.92 14.28L57.92 14.28Q57.92 13.58 58.39 10.50L58.39 10.50L53.82 10.50L53.82 10.50Q53.51 12.46 53.51 13.76L53.51 13.76L53.51 13.76Q53.51 15.05 54.04 15.62L54.04 15.62L54.04 15.62Q53.61 16.13 53.07 16.13L53.07 16.13L53.07 16.13Q51.98 16.13 51.98 14.28L51.98 14.28L51.98 14.28Q51.98 13.51 52.48 10.28L52.48 10.28L52.48 10.28Q52.98 7.06 52.98 5.78L52.98 5.78L52.98 5.78Q52.98 4.49 52.68 3.91L52.68 3.91L52.68 3.91Q53.06 3.58 53.59 3.58ZM77.74 6.30L77.74 6.30Q77.46 5.60 76.80 5.11L76.80 5.11L76.80 5.11Q76.15 4.62 75.34 4.62L75.34 4.62L75.34 4.62Q74.54 4.62 74.02 5.10L74.02 5.10L74.02 5.10Q73.50 5.59 73.50 6.45L73.50 6.45L73.50 6.45Q73.50 6.85 73.56 7.10L73.56 7.10L73.56 7.10Q73.63 7.35 73.90 7.65L73.90 7.65L73.90 7.65Q74.17 7.95 74.43 8.16L74.43 8.16L74.43 8.16Q74.69 8.37 75.39 8.93L75.39 8.93L75.39 8.93Q76.09 9.49 76.83 10.12L76.83 10.12L76.83 10.12Q77.56 10.74 77.95 11.40L77.95 11.40L77.95 11.40Q78.34 12.05 78.34 13.08L78.34 13.08L78.34 13.08Q78.34 14.42 77.27 15.34L77.27 15.34L77.27 15.34Q76.20 16.27 74.55 16.27L74.55 16.27L74.55 16.27Q73.26 16.27 72.30 15.76L72.30 15.76L72.30 15.76Q71.33 15.25 71.33 14.31L71.33 14.31L71.33 14.31Q71.33 13.90 71.51 13.58L71.51 13.58L71.51 13.58Q71.69 13.26 72.04 12.85L72.04 12.85L72.04 12.85Q72.66 15.34 74.91 15.34L74.91 15.34L74.91 15.34Q75.73 15.34 76.34 14.88L76.34 14.88L76.34 14.88Q76.96 14.42 76.96 13.51L76.96 13.51L76.96 13.51Q76.96 12.99 76.83 12.72L76.83 12.72L76.83 12.72Q76.71 12.45 76.63 12.29L76.63 12.29L76.63 12.29Q76.55 12.14 76.36 11.92L76.36 11.92L76.36 11.92Q76.16 11.70 76.03 11.57L76.03 11.57L76.03 11.57Q75.91 11.44 75.60 11.18L75.60 11.18L75.60 11.18Q75.29 10.92 75.12 10.77L75.12 10.77L75.12 10.77Q74.94 10.63 74.52 10.30L74.52 10.30L74.52 10.30Q74.10 9.97 73.86 9.77L73.86 9.77L73.86 9.77Q73.05 9.11 72.63 8.46L72.63 8.46L72.63 8.46Q72.20 7.80 72.20 6.87L72.20 6.87L72.20 6.87Q72.20 5.32 73.25 4.45L73.25 4.45L73.25 4.45Q74.30 3.58 75.99 3.58L75.99 3.58L75.99 3.58Q77 3.58 77.69 3.98L77.69 3.98L77.69 3.98Q78.37 4.37 78.37 5.05L78.37 5.05L78.37 5.05Q78.37 5.74 77.74 6.30L77.74 6.30ZM86.32 5.17L86.32 5.17L84.15 5.00L84.15 5.00Q84.13 5.89 83.59 9.14L83.59 9.14L83.59 9.14Q83.05 12.38 83.05 13.70L83.05 13.70L83.05 13.70Q83.05 15.02 83.59 15.62L83.59 15.62L83.59 15.62Q83.16 16.13 82.61 16.13L82.61 16.13L82.61 16.13Q81.54 16.13 81.54 14.28L81.54 14.28L81.54 14.28Q81.54 13.51 82.05 10.21L82.05 10.21L82.05 10.21Q82.56 6.92 82.56 5.66L82.56 5.66L82.56 5.66Q82.56 5.22 82.54 4.98L82.54 4.98L82.54 4.98Q80.60 5.00 79.37 5.43L79.37 5.43L79.37 5.43Q79.42 4.52 79.75 4.19L79.75 4.19L79.75 4.19Q80.08 3.86 80.74 3.86L80.74 3.86L85.95 3.92L85.95 3.92Q87.25 3.92 87.68 3.65L87.68 3.65L87.68 3.65Q87.63 4.56 87.31 4.87L87.31 4.87L87.31 4.87Q87.00 5.17 86.32 5.17ZM95.10 9.21L95.10 9.21L95.10 9.21Q95.10 7.01 94.28 5.85L94.28 5.85L94.28 5.85Q93.46 4.69 92.04 4.69L92.04 4.69L92.04 4.69Q91.31 4.69 90.73 5.16L90.73 5.16L90.73 5.16Q90.16 5.63 89.82 6.31L89.82 6.31L89.82 6.31Q89.49 6.99 89.26 7.85L89.26 7.85L89.26 7.85Q88.89 9.30 88.89 10.71L88.89 10.71L88.89 10.71Q88.89 12.91 89.71 14.07L89.71 14.07L89.71 14.07Q90.52 15.23 91.95 15.23L91.95 15.23L91.95 15.23Q92.68 15.23 93.25 14.76L93.25 14.76L93.25 14.76Q93.83 14.29 94.16 13.62L94.16 13.62L94.16 13.62Q94.50 12.94 94.72 12.08L94.72 12.08L94.72 12.08Q95.10 10.63 95.10 9.21ZM91.10 16.32L91.10 16.32L91.10 16.32Q89.35 16.32 88.36 14.91L88.36 14.91L88.36 14.91Q87.37 13.50 87.37 11.33L87.37 11.33L87.37 11.33Q87.37 8.53 88.75 6.15L88.75 6.15L88.75 6.15Q89.40 5.01 90.49 4.30L90.49 4.30L90.49 4.30Q91.57 3.58 92.89 3.58L92.89 3.58L92.89 3.58Q94.64 3.58 95.63 5.01L95.63 5.01L95.63 5.01Q96.61 6.43 96.61 8.60L96.61 8.60L96.61 8.60Q96.61 10.85 95.72 12.82L95.72 12.82L95.72 12.82Q94.74 15.01 93.09 15.86L93.09 15.86L93.09 15.86Q92.16 16.32 91.10 16.32ZM106.16 6.34L106.16 6.34L106.16 6.34Q106.16 8.86 102.75 10.42L102.75 10.42L102.75 10.42Q102.93 10.78 103.28 11.50L103.28 11.50L103.28 11.50Q103.63 12.22 103.81 12.57L103.81 12.57L103.81 12.57Q103.99 12.92 104.30 13.44L104.30 13.44L104.30 13.44Q104.61 13.96 104.85 14.21L104.85 14.21L104.85 14.21Q105.49 14.90 106.15 14.99L106.15 14.99L106.15 14.99Q106.05 15.64 105.71 15.90L105.71 15.90L105.71 15.90Q105.36 16.17 105.04 16.17L105.04 16.17L105.04 16.17Q104.33 16.17 103.71 15.23L103.71 15.23L103.71 15.23Q103.35 14.71 101.51 10.89L101.51 10.89L101.51 10.89Q101.28 10.98 100.32 11.23L100.32 11.23L100.32 11.23Q100.13 12.67 100.13 13.86L100.13 13.86L100.13 13.86Q100.13 15.05 100.66 15.62L100.66 15.62L100.66 15.62Q100.23 16.13 99.69 16.13L99.69 16.13L99.69 16.13Q98.60 16.13 98.60 14.28L98.60 14.28L98.60 14.28Q98.60 13.51 99.13 10.04L99.13 10.04L99.13 10.04Q99.67 6.57 99.67 5.58L99.67 5.58L99.67 5.58Q99.67 4.59 99.46 3.93L99.46 3.93L99.46 3.93Q101.35 3.58 102.58 3.58L102.58 3.58L102.58 3.58Q106.16 3.58 106.16 6.34ZM104.69 6.62L104.69 6.62L104.69 6.62Q104.69 5.49 104.02 4.96L104.02 4.96L104.02 4.96Q103.35 4.44 102.24 4.44L102.24 4.44L102.24 4.44Q101.75 4.44 101.25 4.52L101.25 4.52L101.25 4.52Q101.25 5.31 101.07 6.44L101.07 6.44L101.07 6.44Q100.86 7.83 100.46 10.26L100.46 10.26L100.46 10.26Q102.13 9.93 103.33 9.11L103.33 9.11L103.33 9.11Q103.96 8.68 104.33 8.04L104.33 8.04L104.33 8.04Q104.69 7.41 104.69 6.62ZM110.88 3.89L110.88 3.89L113.15 3.92L113.15 3.92Q114.83 3.92 115.39 3.65L115.39 3.65L115.39 3.65Q115.32 4.56 114.95 4.87L114.95 4.87L114.95 4.87Q114.58 5.17 113.78 5.17L113.78 5.17L113.78 5.17Q112.46 5.17 110.49 4.86L110.49 4.86L110.49 4.86Q110.49 5.80 109.90 9.32L109.90 9.32L109.90 9.32Q112.64 9.30 113.48 8.86L113.48 8.86L113.48 8.86Q113.40 9.97 112.85 10.23L112.85 10.23L112.85 10.23Q112.56 10.39 112.29 10.42L112.29 10.42L112.29 10.42Q112.03 10.46 111.65 10.46L111.65 10.46L111.65 10.46Q111.27 10.46 109.73 10.33L109.73 10.33L109.73 10.33Q109.30 13.12 109.30 14.46L109.30 14.46L109.30 14.46Q109.30 14.74 109.31 14.87L109.31 14.87L109.31 14.87Q110.46 14.92 111.24 14.92L111.24 14.92L111.24 14.92Q113.89 14.92 114.58 14.56L114.58 14.56L114.58 14.56Q114.53 15.12 114.39 15.46L114.39 15.46L114.39 15.46Q114.24 15.79 113.90 15.95L113.90 15.95L113.90 15.95Q113.57 16.10 113.25 16.14L113.25 16.14L113.25 16.14Q112.94 16.17 112.25 16.17L112.25 16.17L112.25 16.17Q111.55 16.17 109.49 15.88L109.49 15.88L109.49 15.88Q109.12 16.14 108.74 16.14L108.74 16.14L108.74 16.14Q107.73 16.14 107.73 14.78L107.73 14.78L107.73 14.78Q107.73 13.90 108.36 10.26L108.36 10.26L108.36 10.26Q108.14 10.25 107.65 10.25L107.65 10.25L107.65 10.25Q107.72 9.73 107.87 9.55L107.87 9.55L107.87 9.55Q108.02 9.38 108.51 9.34L108.51 9.34L108.51 9.34Q108.91 6.86 108.91 5.89L108.91 5.89L108.91 5.89Q108.91 4.91 108.70 4.28L108.70 4.28L108.70 4.28Q109.19 3.89 110.88 3.89Z"></path></g><!----><!----></svg>